<?xml version="1.0" encoding="utf-8" ?><svg xmlns="http://www.w3.org/2000/svg" xmlns:xlink="http://www.w3.org/1999/xlink" width="800" height="800" viewBox="0 0 800 800"><path fill="white" d="M0 0L800 0L800 800L0 800L0 0Z"/><path d="M129.124 270.883C159.976 269.712 194.079 278.392 216.784 300.08C242.495 324.642 252.629 359.043 253.473 393.75C254.348 429.708 245.735 467.707 220.09 494.307C196.505 518.736 166.658 527.176 133.785 527.728C101.953 527.869 70.4277 521.621 45.8423 499.017C-2.83196 454.264 -4.25317 353.125 39.8281 304.928C63.2915 279.275 95.5727 271.794 129.124 270.883Z"/><path fill="white" d="M122.26 313.055C130.147 312.619 136.699 312.716 144.559 313.656C184.533 318.434 206.633 350.04 209.335 388.667C212.759 437.6 191.984 480.588 138.575 484.467C117.882 486.276 95.65 482.138 79.5458 468.517C61.687 453.413 53.9581 431.982 52.1067 409.231C50.0776 384.294 54.7345 356.669 71.2431 337.114C84.8614 320.982 101.812 314.867 122.26 313.055Z"/><path d="M422.341 381.241C427.13 372.17 430.917 365.717 438.14 358.225C457.8 337.555 498.199 335.108 518.069 356.708C543.767 384.643 541.191 428.169 541.197 463.46L541.188 521.501L497.775 521.52C498.197 502.202 497.596 482.107 497.816 462.681C497.403 447.666 498.6 432.153 497.074 417.204C495.528 402.061 491.774 388.479 476.705 382.642C455.964 376.758 439.187 386.43 433.881 407.331C429.062 426.312 430.403 445.772 430.4 465.219L430.395 521.514L386.548 521.522L386.558 453.718C386.569 439.357 387.239 423.74 385.125 409.585C382.016 388.759 366.672 377.086 345.705 382.124C320.848 388.097 319.222 420.052 319.144 440.763C319.118 448.72 319.15 456.755 319.149 464.735L319.145 521.514L275.792 521.522L275.816 341.754L318.358 341.769C318.474 355.188 318.749 368.605 319.184 382.017C320.58 378.995 322.149 375.45 323.637 372.525C330.018 360.571 342.589 347.896 356.032 344.238C389.327 335.176 412.514 349.668 422.341 381.241Z"/><path d="M632.148 336.108C665.623 335.335 702.887 345.17 715.165 380.421C717.801 387.989 718.221 394.618 718.396 402.527C704.927 402.795 690.905 402.595 677.397 402.574C677.402 402.152 677.405 401.731 677.405 401.31C677.44 377.518 657.779 370.236 636.951 370.23C623.782 370.226 605.411 373.903 605.546 390.624C605.683 407.712 627.897 412.251 640.799 416.029C671.958 424.611 716.12 431.576 717.911 472.059C719.684 512.142 683.587 524.356 649.579 525.797C647.875 525.848 646.171 525.88 644.466 525.892C616.681 526.107 584.062 513.576 568.905 489.199C563.223 480.061 561.429 470.886 561.407 460.275L602.361 460.296C604.589 485.45 621.044 494.82 645.19 493.454C658.23 492.716 675.998 487.737 675.354 471.289C674.69 454.335 648.909 449.013 635.98 445.647C606.199 437.894 566.038 428.757 565.024 390.716C562.544 350.072 597.71 337.463 632.148 336.108Z"/><path fill="#0DA6EA" d="M758.219 468.511C766.162 468.315 774.12 467.597 781.073 472.372C785.601 475.482 788.918 483.087 789.72 488.465C791.022 497.203 789.808 506.994 784.377 514.246C780.413 519.539 774.906 520.519 768.844 521.395C762.984 521.941 751.851 521.327 747.201 517.705C735.587 508.657 735.04 487.606 743.188 476.117C746.868 470.927 752.507 469.391 758.219 468.511Z"/></svg>